<svg id="layer_1" data-name="Layer 1" xmlns="http://www.w3.org/2000/svg" viewBox="0 0 370.54 352.52"><defs><style>.cls-1{fill:#fff;}.cls-1,.cls-11{stroke:#231815;stroke-miterlimit:10;}.cls-10,.cls-12,.cls-14,.cls-16,.cls-2,.cls-3,.cls-6,.cls-8{font-size:12px;font-family:KozGoPr6N-Regular-83pv-RKSJ-H, Kozuka Gothic Pr6N;}.cls-15,.cls-2{fill:#231815;}.cls-3{fill:#eb6100;}.cls-4,.cls-8{fill:#727171;}.cls-16,.cls-5{fill:#e60012;}.cls-6{fill:#898989;}.cls-12,.cls-7,.cls-9{fill:#0b318f;}.cls-17,.cls-9{letter-spacing:0.5em;}.cls-10{fill:#094;}.cls-11{fill:none;}.cls-13,.cls-14{fill:#595757;}</style></defs><title>segment collision</title><rect class="cls-1" x="105.64" y="73.25" width="59.44" height="184.27"/><rect class="cls-1" x="124.88" y="124.93" width="29.94" height="64.16"/><rect class="cls-1" x="129.16" y="47.24" width="13.19" height="45.62"/><rect class="cls-1" x="146.98" y="238.64" width="11.41" height="54.18"/><text class="cls-2" transform="translate(171.93 75.9)">maxZ</text><text class="cls-2" transform="translate(172.29 260.53)">minZ</text><text class="cls-3" transform="translate(146.83 95.65)"><tspan xml:space="preserve">z      </tspan><tspan class="cls-4" x="22.26" y="0">minZ&lt;</tspan><tspan class="cls-5" x="58.4" y="0">z&lt;maxZ</tspan></text><text class="cls-6" transform="translate(146.19 50.67)"><tspan xml:space="preserve">z’     </tspan><tspan class="cls-7" x="22.09" y="0">minZ</tspan><tspan x="50.15" y="0">&lt;maxZ</tspan><tspan class="cls-7" x="88.26" y="0">&lt;z’</tspan></text><text class="cls-8" transform="translate(136.83 295.65)"><tspan xml:space="preserve">z         </tspan><tspan class="cls-5" x="30.65" y="0">z</tspan><tspan x="36.13" y="0">&lt;minZ</tspan><tspan class="cls-5" x="72.27" y="0">&lt;maxZ</tspan></text><text class="cls-3" transform="translate(136.19 241.67)"><tspan xml:space="preserve">z’         </tspan><tspan class="cls-7" x="33.27" y="0">minZ&lt;z</tspan><tspan class="cls-9" x="74.9" y="0">’</tspan><tspan class="cls-4" x="83.53" y="0">&lt;maxZ</tspan></text><text class="cls-10" transform="translate(112.83 192.65)"><tspan xml:space="preserve">z                  </tspan><tspan class="cls-4" x="55.81" y="0">minZ&lt;</tspan><tspan class="cls-5" x="91.95" y="0" xml:space="preserve">z&lt;maxZ  </tspan><tspan x="141.14" y="0" xml:space="preserve">            </tspan></text><text class="cls-10" transform="translate(111.19 128.67)"><tspan xml:space="preserve">z’                 </tspan><tspan class="cls-7" x="55.64" y="0">minZ&lt; z</tspan><tspan class="cls-9" x="100.07" y="0">’</tspan><tspan class="cls-4" x="108.69" y="0">&lt;maxZ</tspan></text><rect class="cls-11" x="108.13" y="42.24" width="8.2" height="31.01"/><rect class="cls-11" x="108.13" y="257.53" width="11.05" height="38.12"/><text class="cls-12" transform="translate(20.19 44.67)">minZ<tspan class="cls-13" x="28.06" y="0">&lt;maxZ</tspan><tspan x="66.17" y="0">&lt;z’</tspan></text><text class="cls-14" transform="translate(20.83 77.65)">minZ&lt;<tspan class="cls-15" x="36.14" y="0">z=maxZ</tspan></text><text class="cls-16" transform="translate(20.25 298.1)">z<tspan class="cls-13" x="5.48" y="0">&lt;minZ</tspan><tspan x="41.63" y="0">&lt;maxZ</tspan></text><text class="cls-2" transform="translate(11.63 262.68)">minZ=z<tspan class="cls-17" x="41.63" y="0">’</tspan><tspan class="cls-13" x="50.26" y="0">&lt;maxZ</tspan></text><rect class="cls-11" x="263.86" y="73.25" width="7.13" height="184.27"/><text class="cls-12" transform="translate(273.65 77.01)">minZ&lt;z<tspan class="cls-17" x="41.63" y="0">’</tspan><tspan class="cls-15" x="50.26" y="0">=maxZ</tspan></text><text class="cls-2" transform="translate(274.74 258.81)">minZ=<tspan class="cls-5" x="36.14" y="0">z&lt;maxZ</tspan></text><rect class="cls-11" x="336.31" y="14.67" width="6.54" height="324.42"/><text class="cls-12" transform="translate(247.57 21.24)">minZ<tspan class="cls-13" x="28.06" y="0">&lt;maxZ</tspan><tspan x="66.17" y="0">&lt;z’</tspan></text><text class="cls-16" transform="translate(250.66 339.09)">z<tspan class="cls-13" x="5.48" y="0">&lt;minZ</tspan><tspan x="41.63" y="0">&lt;maxZ</tspan></text><text class="cls-16" transform="translate(25.51 339.09)">z&lt;maxZ<tspan class="cls-15" x="43.6" y="0" xml:space="preserve"> &amp;&amp; </tspan><tspan class="cls-7" x="64.81" y="0">minZ&lt;z’</tspan></text></svg>
